<?xml version="1.0" encoding="UTF-8"?>
<svg xmlns="http://www.w3.org/2000/svg" xmlns:xlink="http://www.w3.org/1999/xlink" width="16pt" height="16pt" viewBox="0 0 16 16" version="1.1">
<g id="surface1">
<path style=" stroke:none;fill-rule:nonzero;fill:rgb(84.705882%,0%,15.294118%);fill-opacity:1;" d="M 11.984375 6.03125 C 11.984375 5.9375 11.945312 5.863281 11.871094 5.808594 L 8.191406 2.960938 C 8.085938 2.875 7.96875 2.875 7.839844 2.960938 L 4.289062 5.808594 C 4.222656 5.863281 4.191406 5.9375 4.191406 6.03125 L 4.191406 11.167969 C 4.191406 11.253906 4.21875 11.324219 4.273438 11.375 C 4.324219 11.429688 4.390625 11.457031 4.464844 11.457031 L 6.574219 11.457031 C 6.660156 11.457031 6.730469 11.429688 6.785156 11.375 C 6.835938 11.324219 6.863281 11.253906 6.863281 11.167969 L 6.863281 8.015625 L 9.296875 8.015625 L 9.296875 11.167969 C 9.296875 11.253906 9.324219 11.324219 9.375 11.375 C 9.429688 11.429688 9.5 11.457031 9.585938 11.457031 L 11.695312 11.457031 C 11.78125 11.457031 11.851562 11.429688 11.902344 11.375 C 11.957031 11.324219 11.984375 11.253906 11.984375 11.167969 Z M 8 0 C 9.097656 0 10.136719 0.210938 11.113281 0.632812 C 12.089844 1.054688 12.9375 1.625 13.65625 2.34375 C 14.375 3.0625 14.945312 3.910156 15.367188 4.886719 C 15.789062 5.863281 16 6.902344 16 8 C 16 8.734375 15.902344 9.445312 15.710938 10.128906 C 15.519531 10.8125 15.25 11.449219 14.902344 12.039062 C 14.558594 12.632812 14.140625 13.171875 13.65625 13.65625 C 13.171875 14.140625 12.632812 14.558594 12.039062 14.902344 C 11.449219 15.25 10.8125 15.519531 10.128906 15.710938 C 9.445312 15.902344 8.734375 16 8 16 C 7.265625 16 6.554688 15.902344 5.871094 15.710938 C 5.1875 15.519531 4.550781 15.25 3.960938 14.902344 C 3.367188 14.558594 2.828125 14.140625 2.34375 13.65625 C 1.859375 13.171875 1.441406 12.632812 1.097656 12.039062 C 0.75 11.449219 0.480469 10.8125 0.289062 10.128906 C 0.0976562 9.445312 0 8.734375 0 8 C 0 7.265625 0.0976562 6.554688 0.289062 5.871094 C 0.480469 5.1875 0.75 4.550781 1.097656 3.960938 C 1.441406 3.367188 1.859375 2.828125 2.34375 2.34375 C 2.828125 1.859375 3.367188 1.441406 3.960938 1.097656 C 4.550781 0.75 5.1875 0.480469 5.871094 0.289062 C 6.554688 0.0976562 7.265625 0 8 0 Z M 8 0 "/>
</g>
</svg>
