<?xml version="1.0" encoding="UTF-8"?>
<svg xmlns="http://www.w3.org/2000/svg" xmlns:xlink="http://www.w3.org/1999/xlink" width="16pt" height="16pt" viewBox="0 0 16 16" version="1.1">
<g id="surface1">
<path style=" stroke:none;fill-rule:nonzero;fill:rgb(66.27451%,65.882353%,68.235294%);fill-opacity:1;" d="M 10.050781 13.949219 C 8.070312 13.949219 6.226562 12.96875 5.117188 11.328125 C 4.894531 10.992188 4.980469 10.542969 5.3125 10.316406 C 5.648438 10.09375 6.097656 10.179688 6.324219 10.511719 C 7.160156 11.753906 8.554688 12.496094 10.050781 12.496094 C 12.527344 12.496094 14.546875 10.476562 14.546875 8 C 14.546875 5.523438 12.527344 3.503906 10.050781 3.503906 C 8.550781 3.503906 7.15625 4.25 6.316406 5.496094 C 6.09375 5.828125 5.640625 5.917969 5.308594 5.695312 C 4.976562 5.46875 4.886719 5.019531 5.109375 4.683594 C 6.21875 3.035156 8.066406 2.050781 10.050781 2.050781 C 13.332031 2.050781 16 4.71875 16 8 C 16 11.28125 13.332031 13.949219 10.050781 13.949219 Z M 10.050781 13.949219 "/>
<path style=" stroke:none;fill-rule:nonzero;fill:rgb(39.215686%,76.470588%,49.019608%);fill-opacity:1;" d="M 11.511719 8.40625 C 11.515625 8.398438 11.519531 8.394531 11.519531 8.390625 C 11.53125 8.375 11.542969 8.359375 11.550781 8.34375 C 11.550781 8.339844 11.554688 8.335938 11.554688 8.332031 C 11.5625 8.316406 11.574219 8.296875 11.582031 8.277344 C 11.582031 8.277344 11.582031 8.273438 11.582031 8.273438 C 11.589844 8.253906 11.597656 8.234375 11.605469 8.210938 C 11.605469 8.210938 11.605469 8.207031 11.605469 8.203125 C 11.613281 8.183594 11.617188 8.164062 11.621094 8.144531 C 11.625 8.136719 11.625 8.132812 11.625 8.125 C 11.628906 8.109375 11.628906 8.089844 11.632812 8.074219 C 11.636719 8.046875 11.636719 8.023438 11.636719 8 C 11.636719 7.976562 11.636719 7.953125 11.632812 7.925781 C 11.628906 7.910156 11.628906 7.894531 11.625 7.875 C 11.625 7.871094 11.625 7.863281 11.621094 7.855469 C 11.617188 7.835938 11.613281 7.816406 11.605469 7.796875 C 11.605469 7.792969 11.605469 7.789062 11.605469 7.789062 C 11.597656 7.769531 11.589844 7.75 11.582031 7.730469 C 11.582031 7.726562 11.582031 7.722656 11.582031 7.722656 C 11.574219 7.703125 11.5625 7.683594 11.554688 7.667969 C 11.554688 7.664062 11.550781 7.660156 11.550781 7.65625 C 11.542969 7.640625 11.53125 7.625 11.523438 7.609375 C 11.519531 7.605469 11.515625 7.601562 11.511719 7.597656 C 11.503906 7.582031 11.492188 7.566406 11.480469 7.554688 C 11.476562 7.546875 11.476562 7.542969 11.472656 7.539062 C 11.457031 7.519531 11.441406 7.503906 11.421875 7.484375 L 9.242188 5.304688 C 8.957031 5.019531 8.496094 5.019531 8.214844 5.304688 C 7.929688 5.589844 7.929688 6.046875 8.214844 6.332031 L 9.152344 7.273438 L 0.726562 7.273438 C 0.324219 7.273438 0 7.597656 0 8 C 0 8.402344 0.324219 8.726562 0.726562 8.726562 L 9.152344 8.726562 L 8.210938 9.667969 C 7.929688 9.953125 7.929688 10.410156 8.210938 10.695312 C 8.355469 10.839844 8.539062 10.910156 8.726562 10.910156 C 8.914062 10.910156 9.097656 10.839844 9.242188 10.695312 L 11.421875 8.515625 C 11.441406 8.496094 11.457031 8.480469 11.472656 8.460938 C 11.472656 8.457031 11.476562 8.453125 11.480469 8.449219 C 11.492188 8.433594 11.503906 8.417969 11.511719 8.40625 Z M 11.511719 8.40625 "/>
</g>
</svg>
