<?xml version="1.0" encoding="UTF-8"?>
<svg xmlns="http://www.w3.org/2000/svg" xmlns:xlink="http://www.w3.org/1999/xlink" width="16pt" height="16pt" viewBox="0 0 16 16" version="1.1">
<g id="surface1">
<path style=" stroke:none;fill-rule:nonzero;fill:rgb(75.294118%,22.745098%,16.862745%);fill-opacity:1;" d="M 11.421875 0.160156 L 15.800781 4.488281 C 15.90625 4.589844 15.964844 4.730469 15.964844 4.875 L 16 11.03125 C 16 11.175781 15.945312 11.316406 15.839844 11.421875 L 11.511719 15.800781 C 11.410156 15.90625 11.269531 15.964844 11.125 15.964844 L 4.96875 16 C 4.824219 16 4.683594 15.945312 4.578125 15.839844 L 0.199219 11.511719 C 0.09375 11.410156 0.0351562 11.269531 0.0351562 11.125 L 0 4.96875 C 0 4.824219 0.0546875 4.683594 0.160156 4.578125 L 4.488281 0.199219 C 4.589844 0.09375 4.730469 0.0351562 4.875 0.0351562 L 11.03125 0 C 11.175781 0 11.316406 0.0546875 11.421875 0.160156 Z M 11.421875 0.160156 "/>
<path style=" stroke:none;fill-rule:nonzero;fill:rgb(90.196078%,29.803922%,23.529412%);fill-opacity:1;" d="M 1.132812 10.777344 L 1.101562 5.304688 C 1.101562 5.230469 1.128906 5.160156 1.183594 5.109375 L 5.027344 1.214844 C 5.082031 1.164062 5.152344 1.132812 5.222656 1.132812 L 10.695312 1.101562 C 10.769531 1.101562 10.839844 1.128906 10.890625 1.183594 L 14.785156 5.027344 C 14.835938 5.082031 14.867188 5.152344 14.867188 5.222656 L 14.898438 10.695312 C 14.898438 10.769531 14.871094 10.839844 14.816406 10.890625 L 10.972656 14.785156 C 10.917969 14.835938 10.847656 14.867188 10.777344 14.867188 L 5.304688 14.898438 C 5.230469 14.898438 5.160156 14.871094 5.109375 14.816406 L 1.214844 10.972656 C 1.164062 10.917969 1.132812 10.847656 1.132812 10.777344 Z M 1.132812 10.777344 "/>
<path style=" stroke:none;fill-rule:nonzero;fill:rgb(90.196078%,90.588235%,90.980392%);fill-opacity:1;" d="M 11.585938 6.007812 L 11.585938 11.863281 L 5.730469 11.863281 C 5.605469 11.863281 5.496094 11.777344 5.464844 11.652344 L 5.050781 10 C 5.03125 9.914062 5.046875 9.828125 5.101562 9.761719 C 5.152344 9.695312 5.234375 9.65625 5.320312 9.65625 L 7.816406 9.65625 L 3.746094 5.585938 C 3.644531 5.480469 3.585938 5.339844 3.585938 5.195312 C 3.585938 5.046875 3.644531 4.90625 3.746094 4.804688 L 4.527344 4.023438 C 4.742188 3.808594 5.09375 3.808594 5.308594 4.023438 L 9.378906 8.09375 L 9.378906 5.59375 C 9.378906 5.507812 9.417969 5.429688 9.484375 5.375 C 9.550781 5.324219 9.640625 5.304688 9.722656 5.328125 L 11.378906 5.742188 C 11.5 5.769531 11.585938 5.882812 11.585938 6.007812 Z M 11.585938 6.007812 "/>
</g>
</svg>
