<!DOCTYPE svg PUBLIC "-//W3C//DTD SVG 20010904//EN" "http://www.w3.org/TR/2001/REC-SVG-20010904/DTD/svg10.dtd">
<svg version="1.0" xmlns="http://www.w3.org/2000/svg" width="370px" height="58px" viewBox="0 0 3700 580" preserveAspectRatio="xMidYMid meet">
<g id="layer101" fill="#5c5c5c" stroke="none">
 <path d="M0 290 l0 -290 1850 0 1850 0 0 290 0 290 -1850 0 -1850 0 0 -290z"/>
 </g>
<g id="layer102" fill="#577aff" stroke="none">
 <path d="M0 290 l0 -290 1850 0 1850 0 0 290 0 290 -1850 0 -1850 0 0 -290z m730 140 l0 -30 -60 0 -60 0 0 -136 0 -135 -32 3 -33 3 -3 163 -2 162 95 0 95 0 0 -30z m291 -5 c48 -46 62 -81 57 -142 -8 -94 -66 -148 -157 -148 -48 1 -65 6 -95 28 -46 36 -68 78 -68 133 0 56 29 112 73 142 29 20 44 23 96 20 53 -3 68 -9 94 -33z m327 21 c15 -8 38 -26 51 -40 l24 -25 -27 -11 c-36 -13 -41 -13 -56 5 -8 10 -30 15 -60 15 -61 0 -90 -30 -90 -95 0 -64 29 -95 87 -95 28 0 53 6 64 16 13 11 25 13 49 7 l32 -9 -26 -31 c-56 -67 -162 -69 -227 -4 -46 46 -62 99 -48 157 11 43 58 100 94 115 32 13 104 10 133 -5z m177 -6 c6 -18 15 -20 85 -20 70 0 79 2 85 20 5 15 15 20 40 20 l34 0 -76 -160 c-42 -88 -79 -160 -82 -159 -3 0 -41 72 -83 160 l-78 159 35 0 c25 0 35 -5 40 -20z m455 -10 l0 -30 -60 0 -60 0 0 -136 0 -135 -32 3 -33 3 -3 163 -2 162 95 0 95 0 0 -30z m192 -32 l3 -62 35 47 c19 25 40 46 45 46 6 0 26 -21 45 -46 l35 -47 3 62 3 62 34 0 35 0 0 -162 c0 -156 -1 -162 -18 -141 -9 12 -42 53 -72 92 -30 39 -59 70 -65 70 -5 0 -35 -31 -65 -70 -30 -39 -63 -80 -72 -92 -17 -21 -18 -15 -18 141 l0 162 35 0 34 0 3 -62z m348 42 c9 -17 21 -20 85 -20 65 0 74 2 80 20 5 15 15 20 40 20 l34 0 -33 -72 c-18 -40 -53 -113 -78 -163 l-46 -90 -69 140 c-92 183 -92 185 -54 185 20 0 34 -7 41 -20z m410 -115 l0 -135 36 0 c33 0 35 -2 32 -27 l-3 -28 -105 0 -105 0 -3 27 c-3 24 0 27 35 30 l38 3 3 133 3 132 34 0 35 0 0 -135z m318 121 c15 -8 38 -26 51 -40 l24 -25 -27 -11 c-36 -13 -41 -13 -56 5 -8 9 -30 15 -57 15 -62 0 -93 -32 -93 -95 0 -62 32 -95 91 -95 25 0 50 7 60 16 18 16 79 12 79 -6 0 -16 -69 -68 -100 -75 -69 -15 -153 23 -185 85 -8 16 -15 51 -15 78 0 116 129 200 228 148z m172 -51 l0 -65 65 0 65 0 0 65 0 65 30 0 30 0 0 -165 0 -165 -30 0 -30 0 0 70 0 70 -65 0 -65 0 0 -70 0 -70 -35 0 -35 0 0 165 0 165 35 0 35 0 0 -65z"/>
 <path d="M855 365 c-19 -18 -25 -35 -25 -69 0 -37 5 -48 31 -70 41 -35 83 -34 120 3 62 62 23 161 -63 161 -28 0 -46 -7 -63 -25z"/>
 <path d="M1570 355 c0 -3 10 -24 21 -47 l21 -42 13 25 c7 13 16 34 19 47 7 20 4 22 -33 22 -23 0 -41 -2 -41 -5z"/>
 <path d="M2560 355 c0 -10 41 -87 44 -83 2 1 13 22 25 46 l21 42 -45 0 c-25 0 -45 -2 -45 -5z"/>
 </g>
<g id="layer103" fill="#718fff" stroke="none">
 <path d="M0 290 l0 -290 1850 0 1850 0 0 290 0 290 -1850 0 -1850 0 0 -290z m129 126 c18 -61 12 -111 -14 -111 -17 0 -20 7 -20 47 0 38 -5 50 -27 68 -38 29 -35 40 10 40 36 0 38 -2 51 -44z m299 26 c-2 -10 -14 -21 -26 -27 -20 -8 -23 -15 -18 -44 6 -41 -8 -71 -34 -71 -33 0 -37 48 -8 107 18 37 2 37 -41 2 -43 -34 -48 -47 -31 -79 7 -12 7 -27 0 -45 -8 -21 -16 -26 -38 -23 -26 3 -27 5 -26 64 1 58 0 61 -32 82 -19 12 -34 29 -34 37 0 13 23 15 146 14 129 -1 145 -3 142 -17z m302 -12 l0 -30 -60 0 -60 0 0 -136 0 -135 -32 3 -33 3 -3 163 -2 162 95 0 95 0 0 -30z m291 -5 c48 -46 62 -81 57 -142 -8 -94 -66 -148 -157 -148 -48 1 -65 6 -95 28 -46 36 -68 78 -68 133 0 56 29 112 73 142 29 20 44 23 96 20 53 -3 68 -9 94 -33z m327 21 c15 -8 38 -26 51 -40 l24 -25 -27 -11 c-36 -13 -41 -13 -56 5 -8 10 -30 15 -60 15 -61 0 -90 -30 -90 -95 0 -64 29 -95 87 -95 28 0 53 6 64 16 13 11 25 13 49 7 l32 -9 -26 -31 c-56 -67 -162 -69 -227 -4 -46 46 -62 99 -48 157 11 43 58 100 94 115 32 13 104 10 133 -5z m177 -6 c6 -18 15 -20 85 -20 70 0 79 2 85 20 5 15 15 20 40 20 l34 0 -76 -160 c-42 -88 -79 -160 -82 -159 -3 0 -41 72 -83 160 l-78 159 35 0 c25 0 35 -5 40 -20z m455 -10 l0 -30 -60 0 -60 0 0 -136 0 -135 -32 3 -33 3 -3 163 -2 162 95 0 95 0 0 -30z m192 -32 l3 -62 35 47 c19 25 40 46 45 46 6 0 26 -21 45 -46 l35 -47 3 62 3 62 34 0 35 0 0 -162 c0 -156 -1 -162 -18 -141 -9 12 -42 53 -72 92 -30 39 -59 70 -65 70 -5 0 -35 -31 -65 -70 -30 -39 -63 -80 -72 -92 -17 -21 -18 -15 -18 141 l0 162 35 0 34 0 3 -62z m348 42 c9 -17 21 -20 85 -20 65 0 74 2 80 20 5 15 15 20 40 20 l34 0 -33 -72 c-18 -40 -53 -113 -78 -163 l-46 -90 -69 140 c-92 183 -92 185 -54 185 20 0 34 -7 41 -20z m410 -115 l0 -135 36 0 c33 0 35 -2 32 -27 l-3 -28 -105 0 -105 0 -3 27 c-3 24 0 27 35 30 l38 3 3 133 3 132 34 0 35 0 0 -135z m318 121 c15 -8 38 -26 51 -40 l24 -25 -27 -11 c-36 -13 -41 -13 -56 5 -8 9 -30 15 -57 15 -62 0 -93 -32 -93 -95 0 -62 32 -95 91 -95 25 0 50 7 60 16 18 16 79 12 79 -6 0 -16 -69 -68 -100 -75 -69 -15 -153 23 -185 85 -8 16 -15 51 -15 78 0 116 129 200 228 148z m172 -51 l0 -65 65 0 65 0 0 65 0 65 30 0 30 0 0 -165 0 -165 -30 0 -30 0 0 70 0 70 -65 0 -65 0 0 -70 0 -70 -35 0 -35 0 0 165 0 165 35 0 35 0 0 -65z m-3245 -110 c0 -14 -6 -25 -12 -25 -7 0 -13 -11 -13 -25 0 -34 39 -36 41 -2 l2 22 4 -22 c4 -19 11 -23 39 -23 27 0 34 4 34 20 0 11 5 20 11 20 6 0 8 -9 4 -20 -5 -16 -2 -20 14 -20 26 0 29 35 4 49 -11 7 -13 11 -5 11 9 0 11 7 7 23 -7 22 -7 22 9 2 8 -11 16 -37 16 -58 0 -85 -101 -129 -162 -70 -33 32 -39 94 -11 125 9 10 17 18 17 18 1 0 1 -11 1 -25z"/>
 <path d="M855 365 c-19 -18 -25 -35 -25 -69 0 -37 5 -48 31 -70 41 -35 83 -34 120 3 62 62 23 161 -63 161 -28 0 -46 -7 -63 -25z"/>
 <path d="M1570 355 c0 -3 10 -24 21 -47 l21 -42 13 25 c7 13 16 34 19 47 7 20 4 22 -33 22 -23 0 -41 -2 -41 -5z"/>
 <path d="M2560 355 c0 -10 41 -87 44 -83 2 1 13 22 25 46 l21 42 -45 0 c-25 0 -45 -2 -45 -5z"/>
 <path d="M170 192 c0 -10 21 -32 31 -32 4 0 5 9 2 20 -5 19 -33 29 -33 12z"/>
 <path d="M210 192 c0 -5 7 -17 15 -28 13 -16 16 -17 25 -4 17 25 11 40 -15 40 -14 0 -25 -4 -25 -8z"/>
 <path d="M277 193 c-13 -12 -7 -32 7 -27 19 7 29 34 12 34 -7 0 -16 -3 -19 -7z"/>
 </g>
<g id="layer104" fill="#849dff" stroke="none">
 <path d="M0 290 l0 -290 1850 0 1850 0 0 290 0 290 -1850 0 -1850 0 0 -290z m120 152 c0 -10 5 -23 11 -29 5 -5 9 -32 7 -59 -3 -41 -6 -49 -23 -49 -17 0 -20 8 -23 51 -2 43 -7 53 -27 62 -40 19 -32 42 15 42 32 0 40 -4 40 -18z m310 2 c0 -7 -12 -21 -26 -31 -21 -13 -25 -22 -20 -46 7 -36 -8 -67 -34 -67 -33 0 -37 48 -8 107 14 29 4 40 -17 19 -9 -9 -26 -21 -37 -27 -16 -9 -19 -18 -16 -52 7 -62 -6 -89 -40 -85 -26 3 -27 4 -26 66 1 38 -3 62 -9 62 -16 0 -57 41 -57 57 0 10 31 13 145 12 116 -1 145 -4 145 -15z m300 -14 l0 -30 -60 0 -60 0 0 -136 0 -135 -32 3 -33 3 -3 163 -2 162 95 0 95 0 0 -30z m291 -5 c48 -46 62 -81 57 -142 -8 -94 -66 -148 -157 -148 -48 1 -65 6 -95 28 -46 36 -68 78 -68 133 0 56 29 112 73 142 29 20 44 23 96 20 53 -3 68 -9 94 -33z m327 21 c15 -8 38 -26 51 -40 l24 -25 -27 -11 c-36 -13 -41 -13 -56 5 -8 10 -30 15 -60 15 -61 0 -90 -30 -90 -95 0 -64 29 -95 87 -95 28 0 53 6 64 16 13 11 25 13 49 7 l32 -9 -26 -31 c-56 -67 -162 -69 -227 -4 -46 46 -62 99 -48 157 11 43 58 100 94 115 32 13 104 10 133 -5z m177 -6 c6 -18 15 -20 85 -20 70 0 79 2 85 20 5 15 15 20 40 20 l34 0 -76 -160 c-42 -88 -79 -160 -82 -159 -3 0 -41 72 -83 160 l-78 159 35 0 c25 0 35 -5 40 -20z m455 -10 l0 -30 -60 0 -60 0 0 -136 0 -135 -32 3 -33 3 -3 163 -2 162 95 0 95 0 0 -30z m192 -32 l3 -62 35 47 c19 25 40 46 45 46 6 0 26 -21 45 -46 l35 -47 3 62 3 62 34 0 35 0 0 -162 c0 -156 -1 -162 -18 -141 -9 12 -42 53 -72 92 -30 39 -59 70 -65 70 -5 0 -35 -31 -65 -70 -30 -39 -63 -80 -72 -92 -17 -21 -18 -15 -18 141 l0 162 35 0 34 0 3 -62z m348 42 c9 -17 21 -20 85 -20 65 0 74 2 80 20 5 15 15 20 40 20 l34 0 -33 -72 c-18 -40 -53 -113 -78 -163 l-46 -90 -69 140 c-92 183 -92 185 -54 185 20 0 34 -7 41 -20z m410 -115 l0 -135 36 0 c33 0 35 -2 32 -27 l-3 -28 -105 0 -105 0 -3 27 c-3 24 0 27 35 30 l38 3 3 133 3 132 34 0 35 0 0 -135z m318 121 c15 -8 38 -26 51 -40 l24 -25 -27 -11 c-36 -13 -41 -13 -56 5 -8 9 -30 15 -57 15 -62 0 -93 -32 -93 -95 0 -62 32 -95 91 -95 25 0 50 7 60 16 18 16 79 12 79 -6 0 -16 -69 -68 -100 -75 -69 -15 -153 23 -185 85 -8 16 -15 51 -15 78 0 116 129 200 228 148z m172 -51 l0 -65 65 0 65 0 0 65 0 65 30 0 30 0 0 -165 0 -165 -30 0 -30 0 0 70 0 70 -65 0 -65 0 0 -70 0 -70 -35 0 -35 0 0 165 0 165 35 0 35 0 0 -65z m-3244 -110 c0 -14 -7 -25 -14 -25 -20 0 -10 -44 11 -48 12 -3 17 3 18 20 l0 23 9 -22 c13 -31 70 -33 70 -3 0 11 5 20 11 20 6 0 8 -9 4 -20 -5 -16 -2 -20 14 -20 24 0 30 37 7 46 -8 3 -11 15 -8 31 5 25 6 25 18 8 8 -10 14 -38 14 -61 0 -35 -5 -47 -31 -68 -66 -56 -159 -16 -159 68 0 23 7 47 17 58 21 23 21 23 19 -7z"/>
 <path d="M855 365 c-19 -18 -25 -35 -25 -69 0 -37 5 -48 31 -70 41 -35 83 -34 120 3 62 62 23 161 -63 161 -28 0 -46 -7 -63 -25z"/>
 <path d="M1570 355 c0 -3 10 -24 21 -47 l21 -42 13 25 c7 13 16 34 19 47 7 20 4 22 -33 22 -23 0 -41 -2 -41 -5z"/>
 <path d="M2560 355 c0 -10 41 -87 44 -83 2 1 13 22 25 46 l21 42 -45 0 c-25 0 -45 -2 -45 -5z"/>
 <path d="M172 189 c2 -7 10 -15 17 -17 8 -3 12 1 9 9 -2 7 -10 15 -17 17 -8 3 -12 -1 -9 -9z"/>
 <path d="M210 194 c0 -3 5 -14 11 -25 8 -16 13 -18 25 -8 22 18 17 39 -11 39 -14 0 -25 -3 -25 -6z"/>
 <path d="M276 184 c-9 -24 -7 -28 9 -14 17 14 20 30 6 30 -5 0 -12 -7 -15 -16z"/>
 </g>
<g id="layer105" fill="#aabcff" stroke="none">
 <path d="M0 290 l0 -290 1850 0 1850 0 0 290 0 290 -1850 0 -1850 0 0 -290z m120 152 c0 -10 4 -22 9 -28 14 -14 22 -87 12 -102 -4 -8 -17 -12 -27 -10 -15 2 -20 14 -22 51 -2 37 -8 51 -28 63 -37 25 -31 44 16 44 32 0 40 -4 40 -18z m310 2 c0 -7 -12 -21 -26 -31 -20 -13 -25 -22 -20 -43 8 -43 -3 -70 -29 -70 -13 0 -26 7 -29 16 -8 20 3 84 17 102 5 7 6 16 2 20 -4 4 -10 1 -12 -6 -3 -7 -18 -19 -35 -28 -27 -14 -30 -19 -26 -57 7 -62 -6 -89 -40 -85 -26 3 -27 6 -30 62 -3 50 -7 62 -33 83 -56 48 -44 53 116 52 116 -1 145 -4 145 -15z m300 -14 l0 -30 -60 0 -60 0 0 -136 0 -135 -32 3 -33 3 -3 163 -2 162 95 0 95 0 0 -30z m291 -5 c48 -46 62 -81 57 -142 -8 -94 -66 -148 -157 -148 -48 1 -65 6 -95 28 -46 36 -68 78 -68 133 0 56 29 112 73 142 29 20 44 23 96 20 53 -3 68 -9 94 -33z m327 21 c15 -8 38 -26 51 -40 l24 -25 -27 -11 c-36 -13 -41 -13 -56 5 -8 10 -30 15 -60 15 -61 0 -90 -30 -90 -95 0 -64 29 -95 87 -95 28 0 53 6 64 16 13 11 25 13 49 7 l32 -9 -26 -31 c-56 -67 -162 -69 -227 -4 -46 46 -62 99 -48 157 11 43 58 100 94 115 32 13 104 10 133 -5z m177 -6 c6 -18 15 -20 85 -20 70 0 79 2 85 20 5 15 15 20 40 20 l34 0 -76 -160 c-42 -88 -79 -160 -82 -159 -3 0 -41 72 -83 160 l-78 159 35 0 c25 0 35 -5 40 -20z m455 -10 l0 -30 -60 0 -60 0 0 -136 0 -135 -32 3 -33 3 -3 163 -2 162 95 0 95 0 0 -30z m192 -32 l3 -62 35 47 c19 25 40 46 45 46 6 0 26 -21 45 -46 l35 -47 3 62 3 62 34 0 35 0 0 -162 c0 -156 -1 -162 -18 -141 -9 12 -42 53 -72 92 -30 39 -59 70 -65 70 -5 0 -35 -31 -65 -70 -30 -39 -63 -80 -72 -92 -17 -21 -18 -15 -18 141 l0 162 35 0 34 0 3 -62z m348 42 c9 -17 21 -20 85 -20 65 0 74 2 80 20 5 15 15 20 40 20 l34 0 -33 -72 c-18 -40 -53 -113 -78 -163 l-46 -90 -69 140 c-92 183 -92 185 -54 185 20 0 34 -7 41 -20z m410 -115 l0 -135 36 0 c33 0 35 -2 32 -27 l-3 -28 -105 0 -105 0 -3 27 c-3 24 0 27 35 30 l38 3 3 133 3 132 34 0 35 0 0 -135z m318 121 c15 -8 38 -26 51 -40 l24 -25 -27 -11 c-36 -13 -41 -13 -56 5 -8 9 -30 15 -57 15 -62 0 -93 -32 -93 -95 0 -62 32 -95 91 -95 25 0 50 7 60 16 18 16 79 12 79 -6 0 -16 -69 -68 -100 -75 -69 -15 -153 23 -185 85 -8 16 -15 51 -15 78 0 116 129 200 228 148z m172 -51 l0 -65 65 0 65 0 0 65 0 65 30 0 30 0 0 -165 0 -165 -30 0 -30 0 0 70 0 70 -65 0 -65 0 0 -70 0 -70 -35 0 -35 0 0 165 0 165 35 0 35 0 0 -65z m-3243 -95 c-3 -11 0 -23 6 -27 6 -4 1 -10 -12 -15 -26 -9 -25 -41 2 -46 12 -2 17 3 18 20 l0 23 9 -22 c12 -30 60 -32 67 -3 6 24 25 27 21 4 -4 -23 20 -30 29 -8 4 10 0 21 -8 28 -17 13 -25 71 -8 60 6 -3 18 -22 26 -41 28 -68 -17 -133 -94 -133 -76 0 -120 89 -77 155 20 30 28 32 21 5z"/>
 <path d="M855 365 c-19 -18 -25 -35 -25 -69 0 -37 5 -48 31 -70 41 -35 83 -34 120 3 62 62 23 161 -63 161 -28 0 -46 -7 -63 -25z"/>
 <path d="M1570 355 c0 -3 10 -24 21 -47 l21 -42 13 25 c7 13 16 34 19 47 7 20 4 22 -33 22 -23 0 -41 -2 -41 -5z"/>
 <path d="M2560 355 c0 -10 41 -87 44 -83 2 1 13 22 25 46 l21 42 -45 0 c-25 0 -45 -2 -45 -5z"/>
 <path d="M172 189 c2 -7 10 -15 17 -17 8 -3 12 1 9 9 -2 7 -10 15 -17 17 -8 3 -12 -1 -9 -9z"/>
 <path d="M220 181 c0 -28 17 -35 29 -12 15 27 14 31 -9 31 -13 0 -20 -7 -20 -19z"/>
 <path d="M276 184 c-9 -24 -7 -28 9 -14 17 14 20 30 6 30 -5 0 -12 -7 -15 -16z"/>
 </g>
<g id="layer106" fill="#b9c7ff" stroke="none">
 <path d="M0 290 l0 -290 1850 0 1850 0 0 290 0 290 -1850 0 -1850 0 0 -290z m120 152 c0 -10 5 -23 11 -29 6 -6 11 -32 12 -59 2 -45 0 -49 -22 -52 -31 -5 -43 14 -35 59 4 31 2 38 -20 53 -40 26 -34 46 14 46 32 0 40 -4 40 -18z m310 2 c0 -7 -12 -21 -26 -31 -20 -13 -25 -22 -20 -43 8 -43 -3 -70 -29 -70 -13 0 -26 7 -29 16 -8 20 3 84 17 102 19 24 -1 23 -28 -2 -16 -15 -32 -26 -38 -26 -6 0 -7 -20 -4 -52 8 -70 -1 -83 -55 -79 -15 1 -18 11 -18 64 0 59 -2 64 -30 80 -17 10 -30 27 -30 38 0 18 8 19 145 18 116 -1 145 -4 145 -15z m300 -14 l0 -30 -60 0 -60 0 0 -136 0 -135 -32 3 -33 3 -3 163 -2 162 95 0 95 0 0 -30z m291 -5 c48 -46 62 -81 57 -142 -8 -94 -66 -148 -157 -148 -48 1 -65 6 -95 28 -46 36 -68 78 -68 133 0 56 29 112 73 142 29 20 44 23 96 20 53 -3 68 -9 94 -33z m327 21 c15 -8 38 -26 51 -40 l24 -25 -27 -11 c-36 -13 -41 -13 -56 5 -8 10 -30 15 -60 15 -61 0 -90 -30 -90 -95 0 -64 29 -95 87 -95 28 0 53 6 64 16 13 11 25 13 49 7 l32 -9 -26 -31 c-56 -67 -162 -69 -227 -4 -46 46 -62 99 -48 157 11 43 58 100 94 115 32 13 104 10 133 -5z m177 -6 c6 -18 15 -20 85 -20 70 0 79 2 85 20 5 15 15 20 40 20 l34 0 -76 -160 c-42 -88 -79 -160 -82 -159 -3 0 -41 72 -83 160 l-78 159 35 0 c25 0 35 -5 40 -20z m455 -10 l0 -30 -60 0 -60 0 0 -136 0 -135 -32 3 -33 3 -3 163 -2 162 95 0 95 0 0 -30z m192 -32 l3 -62 35 47 c19 25 40 46 45 46 6 0 26 -21 45 -46 l35 -47 3 62 3 62 34 0 35 0 0 -162 c0 -156 -1 -162 -18 -141 -9 12 -42 53 -72 92 -30 39 -59 70 -65 70 -5 0 -35 -31 -65 -70 -30 -39 -63 -80 -72 -92 -17 -21 -18 -15 -18 141 l0 162 35 0 34 0 3 -62z m348 42 c9 -17 21 -20 85 -20 65 0 74 2 80 20 5 15 15 20 40 20 l34 0 -33 -72 c-18 -40 -53 -113 -78 -163 l-46 -90 -69 140 c-92 183 -92 185 -54 185 20 0 34 -7 41 -20z m410 -115 l0 -135 36 0 c33 0 35 -2 32 -27 l-3 -28 -105 0 -105 0 -3 27 c-3 24 0 27 35 30 l38 3 3 133 3 132 34 0 35 0 0 -135z m318 121 c15 -8 38 -26 51 -40 l24 -25 -27 -11 c-36 -13 -41 -13 -56 5 -8 9 -30 15 -57 15 -62 0 -93 -32 -93 -95 0 -62 32 -95 91 -95 25 0 50 7 60 16 18 16 79 12 79 -6 0 -16 -69 -68 -100 -75 -69 -15 -153 23 -185 85 -8 16 -15 51 -15 78 0 116 129 200 228 148z m172 -51 l0 -65 65 0 65 0 0 65 0 65 30 0 30 0 0 -165 0 -165 -30 0 -30 0 0 70 0 70 -65 0 -65 0 0 -70 0 -70 -35 0 -35 0 0 165 0 165 35 0 35 0 0 -65z m-3243 -94 c-3 -12 3 -27 14 -37 10 -9 19 -23 19 -31 0 -7 11 -13 25 -13 27 0 61 50 57 85 -2 17 1 16 23 -8 65 -72 -13 -182 -110 -155 -65 17 -88 93 -48 155 19 28 27 30 20 4z"/>
 <path d="M855 365 c-19 -18 -25 -35 -25 -69 0 -37 5 -48 31 -70 41 -35 83 -34 120 3 62 62 23 161 -63 161 -28 0 -46 -7 -63 -25z"/>
 <path d="M1570 355 c0 -3 10 -24 21 -47 l21 -42 13 25 c7 13 16 34 19 47 7 20 4 22 -33 22 -23 0 -41 -2 -41 -5z"/>
 <path d="M2560 355 c0 -10 41 -87 44 -83 2 1 13 22 25 46 l21 42 -45 0 c-25 0 -45 -2 -45 -5z"/>
 <path d="M160 241 c0 -12 6 -21 16 -21 9 0 14 7 12 17 -5 25 -28 28 -28 4z"/>
 <path d="M290 240 c0 -13 5 -20 13 -17 6 2 12 10 12 17 0 7 -6 15 -12 18 -8 2 -13 -5 -13 -18z"/>
 <path d="M175 180 c3 -5 11 -10 16 -10 6 0 7 5 4 10 -3 6 -11 10 -16 10 -6 0 -7 -4 -4 -10z"/>
 <path d="M222 178 c6 -18 28 -21 28 -4 0 9 -7 16 -16 16 -9 0 -14 -5 -12 -12z"/>
 <path d="M280 179 c0 -5 5 -7 10 -4 6 3 10 8 10 11 0 2 -4 4 -10 4 -5 0 -10 -5 -10 -11z"/>
 </g>
<g id="layer107" fill="#ffffff" stroke="none">
 <path d="M0 290 l0 -290 1850 0 1850 0 0 290 0 290 -1850 0 -1850 0 0 -290z m139 105 c15 -76 11 -95 -23 -95 -29 0 -39 21 -30 65 5 27 1 34 -20 49 -41 26 -34 46 17 46 l43 0 13 -65z m291 50 c0 -8 -10 -21 -22 -30 -18 -12 -23 -25 -23 -63 0 -42 -3 -47 -24 -50 -13 -2 -28 2 -32 10 -11 15 -1 87 14 106 19 24 -1 23 -28 -2 -16 -15 -32 -26 -37 -26 -6 0 -7 -22 -3 -53 7 -56 -7 -87 -40 -87 -32 0 -47 31 -41 84 7 49 6 52 -24 69 -17 10 -30 27 -30 38 0 18 8 19 145 18 115 -1 145 -4 145 -14z m300 -15 l0 -30 -60 0 -60 0 0 -136 0 -135 -32 3 -33 3 -3 163 -2 162 95 0 95 0 0 -30z m291 -5 c48 -46 62 -81 57 -142 -8 -94 -66 -148 -157 -148 -48 1 -65 6 -95 28 -46 36 -68 78 -68 133 0 56 29 112 73 142 29 20 44 23 96 20 53 -3 68 -9 94 -33z m327 21 c15 -8 38 -26 51 -40 l24 -25 -27 -11 c-36 -13 -41 -13 -56 5 -8 10 -30 15 -60 15 -61 0 -90 -30 -90 -95 0 -64 29 -95 87 -95 28 0 53 6 64 16 13 11 25 13 49 7 l32 -9 -26 -31 c-56 -67 -162 -69 -227 -4 -46 46 -62 99 -48 157 11 43 58 100 94 115 32 13 104 10 133 -5z m177 -6 c6 -18 15 -20 85 -20 70 0 79 2 85 20 5 15 15 20 40 20 l34 0 -76 -160 c-42 -88 -79 -160 -82 -159 -3 0 -41 72 -83 160 l-78 159 35 0 c25 0 35 -5 40 -20z m455 -10 l0 -30 -60 0 -60 0 0 -136 0 -135 -32 3 -33 3 -3 163 -2 162 95 0 95 0 0 -30z m192 -32 l3 -62 35 47 c19 25 40 46 45 46 6 0 26 -21 45 -46 l35 -47 3 62 3 62 34 0 35 0 0 -162 c0 -156 -1 -162 -18 -141 -9 12 -42 53 -72 92 -30 39 -59 70 -65 70 -5 0 -35 -31 -65 -70 -30 -39 -63 -80 -72 -92 -17 -21 -18 -15 -18 141 l0 162 35 0 34 0 3 -62z m348 42 c9 -17 21 -20 85 -20 65 0 74 2 80 20 5 15 15 20 40 20 l34 0 -33 -72 c-18 -40 -53 -113 -78 -163 l-46 -90 -69 140 c-92 183 -92 185 -54 185 20 0 34 -7 41 -20z m410 -115 l0 -135 36 0 c33 0 35 -2 32 -27 l-3 -28 -105 0 -105 0 -3 27 c-3 24 0 27 35 30 l38 3 3 133 3 132 34 0 35 0 0 -135z m318 121 c15 -8 38 -26 51 -40 l24 -25 -27 -11 c-36 -13 -41 -13 -56 5 -8 9 -30 15 -57 15 -62 0 -93 -32 -93 -95 0 -62 32 -95 91 -95 25 0 50 7 60 16 18 16 79 12 79 -6 0 -16 -69 -68 -100 -75 -69 -15 -153 23 -185 85 -8 16 -15 51 -15 78 0 116 129 200 228 148z m172 -51 l0 -65 65 0 65 0 0 65 0 65 30 0 30 0 0 -165 0 -165 -30 0 -30 0 0 70 0 70 -65 0 -65 0 0 -70 0 -70 -35 0 -35 0 0 165 0 165 35 0 35 0 0 -65z m-3243 -94 c-3 -12 3 -27 14 -37 10 -9 19 -23 19 -31 0 -7 11 -13 25 -13 14 0 25 5 25 10 0 6 8 20 19 31 11 12 17 29 14 42 -4 20 -2 19 21 -6 43 -47 26 -121 -36 -153 -44 -23 -101 -5 -128 39 -25 40 -25 64 0 105 22 36 35 42 27 13z"/>
 <path d="M855 365 c-19 -18 -25 -35 -25 -69 0 -37 5 -48 31 -70 41 -35 83 -34 120 3 62 62 23 161 -63 161 -28 0 -46 -7 -63 -25z"/>
 <path d="M1570 355 c0 -3 10 -24 21 -47 l21 -42 13 25 c7 13 16 34 19 47 7 20 4 22 -33 22 -23 0 -41 -2 -41 -5z"/>
 <path d="M2560 355 c0 -10 41 -87 44 -83 2 1 13 22 25 46 l21 42 -45 0 c-25 0 -45 -2 -45 -5z"/>
 <path d="M160 241 c0 -12 5 -21 10 -21 6 0 10 6 10 14 0 8 -4 18 -10 21 -5 3 -10 -3 -10 -14z"/>
 <path d="M290 240 c0 -13 5 -20 13 -17 6 2 12 10 12 17 0 7 -6 15 -12 18 -8 2 -13 -5 -13 -18z"/>
 <path d="M185 180 c3 -5 8 -10 11 -10 3 0 2 5 -1 10 -3 6 -8 10 -11 10 -3 0 -2 -4 1 -10z"/>
 <path d="M222 178 c6 -18 28 -21 28 -4 0 9 -7 16 -16 16 -9 0 -14 -5 -12 -12z"/>
 <path d="M280 179 c0 -5 5 -7 10 -4 6 3 10 8 10 11 0 2 -4 4 -10 4 -5 0 -10 -5 -10 -11z"/>
 </g>

</svg>