<?xml version="1.0" encoding="UTF-8"?>
<svg xmlns="http://www.w3.org/2000/svg" xmlns:xlink="http://www.w3.org/1999/xlink" width="20pt" height="20pt" viewBox="0 0 20 20" version="1.1">
<g id="surface1">
<path style=" stroke:none;fill-rule:nonzero;fill:rgb(92.941176%,91.764706%,85.490196%);fill-opacity:1;" d="M 8.339844 13.613281 L 5.660156 14.34375 L 6.390625 11.664062 L 16.671875 1.382812 L 0 1.382812 L 0 19.996094 L 18.613281 19.996094 L 18.613281 3.339844 Z M 8.339844 13.613281 "/>
<path style=" stroke:none;fill-rule:nonzero;fill:rgb(96.862745%,90.196078%,63.137255%);fill-opacity:1;" d="M 6.453125 13.550781 C 6.585938 13.6875 6.585938 13.902344 6.453125 14.039062 L 6.328125 14.164062 L 8.324219 13.617188 L 6.386719 11.679688 L 5.839844 13.675781 L 5.964844 13.550781 C 6.097656 13.417969 6.316406 13.417969 6.453125 13.550781 Z M 6.453125 13.550781 "/>
<path style=" stroke:none;fill-rule:nonzero;fill:rgb(25.882353%,29.019608%,37.647059%);fill-opacity:1;" d="M 6.328125 14.164062 L 6.453125 14.039062 C 6.585938 13.902344 6.585938 13.6875 6.453125 13.550781 C 6.316406 13.417969 6.097656 13.417969 5.964844 13.550781 L 5.839844 13.675781 L 5.660156 14.34375 Z M 6.328125 14.164062 "/>
<path style=" stroke:none;fill-rule:nonzero;fill:rgb(92.156863%,72.941176%,8.627451%);fill-opacity:1;" d="M 17.601562 4.351562 L 15.652344 2.402344 L 6.390625 11.664062 L 6.386719 11.679688 L 8.324219 13.617188 L 8.339844 13.613281 Z M 17.601562 4.351562 "/>
<path style=" stroke:none;fill-rule:nonzero;fill:rgb(92.941176%,44.313725%,38.039216%);fill-opacity:1;" d="M 19.800781 1.1875 L 18.816406 0.203125 C 18.550781 -0.0625 18.117188 -0.0625 17.851562 0.203125 L 16.628906 1.425781 L 18.578125 3.375 L 19.800781 2.152344 C 20.066406 1.886719 20.066406 1.453125 19.800781 1.1875 Z M 19.800781 1.1875 "/>
<path style=" stroke:none;fill-rule:nonzero;fill:rgb(96.862745%,90.196078%,63.137255%);fill-opacity:1;" d="M 16.628906 1.425781 L 18.578125 3.375 L 17.601562 4.351562 L 15.652344 2.402344 Z M 16.628906 1.425781 "/>
</g>
</svg>
