<?xml version="1.0" encoding="UTF-8"?>
<svg xmlns="http://www.w3.org/2000/svg" xmlns:xlink="http://www.w3.org/1999/xlink" width="20pt" height="20pt" viewBox="0 0 20 20" version="1.1">
<g id="surface1">
<path style=" stroke:none;fill-rule:nonzero;fill:rgb(92.54902%,94.117647%,94.509804%);fill-opacity:1;" d="M 0.332031 1.5 L 18.667969 1.5 L 18.667969 15.5 L 0.332031 15.5 Z M 0.332031 1.5 "/>
<path style=" stroke:none;fill-rule:nonzero;fill:rgb(32.941176%,36.862745%,45.098039%);fill-opacity:1;" d="M 19 15.832031 L 0 15.832031 L 0 1.167969 L 19 1.167969 Z M 0.667969 15.167969 L 18.332031 15.167969 L 18.332031 1.832031 L 0.667969 1.832031 Z M 0.667969 15.167969 "/>
<path style=" stroke:none;fill-rule:nonzero;fill:rgb(32.941176%,36.862745%,45.098039%);fill-opacity:1;" d="M 1.667969 2.832031 L 17.332031 2.832031 L 17.332031 14.167969 L 1.667969 14.167969 Z M 1.667969 2.832031 "/>
<path style=" stroke:none;fill-rule:nonzero;fill:rgb(92.54902%,94.117647%,94.509804%);fill-opacity:1;" d="M 17.667969 14.5 L 1.332031 14.5 L 1.332031 2.5 L 17.667969 2.5 Z M 2 13.832031 L 17 13.832031 L 17 3.167969 L 2 3.167969 Z M 2 13.832031 "/>
<path style=" stroke:none;fill-rule:nonzero;fill:rgb(95.294118%,83.529412%,35.294118%);fill-opacity:1;" d="M 6.523438 5.691406 C 6.523438 6.53125 5.839844 7.210938 5 7.210938 C 4.160156 7.210938 3.476562 6.53125 3.476562 5.691406 C 3.476562 4.847656 4.160156 4.167969 5 4.167969 C 5.839844 4.167969 6.523438 4.847656 6.523438 5.691406 Z M 6.523438 5.691406 "/>
<path style=" stroke:none;fill-rule:nonzero;fill:rgb(6.666667%,62.745098%,52.156863%);fill-opacity:1;" d="M 17 10.871094 L 16.667969 10.5 L 12.667969 6.832031 L 9.167969 10.667969 L 12.332031 13.832031 L 17 13.832031 Z M 17 10.871094 "/>
<path style=" stroke:none;fill-rule:nonzero;fill:rgb(14.901961%,72.54902%,60%);fill-opacity:1;" d="M 2 13.832031 L 12.332031 13.832031 L 7.339844 8.839844 L 2 13.5 Z M 2 13.832031 "/>
<path style=" stroke:none;fill-rule:nonzero;fill:rgb(14.901961%,72.54902%,60%);fill-opacity:1;" d="M 20 14.832031 C 20 17.042969 18.210938 18.832031 16 18.832031 C 13.789062 18.832031 12 17.042969 12 14.832031 C 12 12.625 13.789062 10.832031 16 10.832031 C 18.210938 10.832031 20 12.625 20 14.832031 Z M 20 14.832031 "/>
<path style=" stroke:none;fill-rule:nonzero;fill:rgb(100%,100%,100%);fill-opacity:1;" d="M 18.191406 12.894531 C 18.039062 12.789062 17.832031 12.824219 17.726562 12.976562 L 15.859375 15.65625 L 14.542969 14.574219 C 14.402344 14.457031 14.191406 14.480469 14.074219 14.621094 C 13.957031 14.765625 13.980469 14.972656 14.121094 15.089844 L 15.71875 16.402344 C 15.777344 16.449219 15.851562 16.476562 15.929688 16.476562 C 15.945312 16.476562 15.960938 16.476562 15.972656 16.472656 C 16.066406 16.460938 16.148438 16.410156 16.203125 16.332031 L 18.273438 13.355469 C 18.378906 13.207031 18.339844 13 18.191406 12.894531 Z M 18.191406 12.894531 "/>
</g>
</svg>
