<!DOCTYPE svg PUBLIC "-//W3C//DTD SVG 20010904//EN" "http://www.w3.org/TR/2001/REC-SVG-20010904/DTD/svg10.dtd">
<svg version="1.0" xmlns="http://www.w3.org/2000/svg" width="306px" height="230px" viewBox="0 0 3060 2300" preserveAspectRatio="xMidYMid meet">
<g id="layer101" fill="#bdbdbd" stroke="none">
 <path d="M0 1150 l0 -1150 1530 0 1530 0 0 1150 0 1150 -1530 0 -1530 0 0 -1150z"/>
 </g>
<g id="layer102" fill="#fefefe" stroke="none">
 <path d="M0 1150 l0 -1150 1530 0 1530 0 0 1150 0 1150 -1530 0 -1530 0 0 -1150z m800 730 c8 -14 21 -20 45 -20 24 0 37 6 45 20 12 23 40 27 40 6 0 -28 -64 -178 -78 -183 -21 -9 -37 15 -70 110 -30 82 -31 87 -12 87 11 0 24 -9 30 -20z m255 -27 c10 -27 23 -65 31 -86 19 -50 18 -69 -3 -65 -11 2 -25 26 -39 66 -12 34 -24 65 -27 68 -3 3 -14 -22 -24 -57 -17 -58 -43 -92 -59 -77 -3 4 8 50 26 102 28 85 34 96 55 96 19 0 27 -9 40 -47z m82 27 c4 -16 14 -20 43 -20 30 0 40 5 45 20 7 22 45 28 44 8 0 -7 -15 -51 -33 -98 -28 -72 -37 -85 -56 -85 -19 0 -27 12 -52 80 -44 121 -43 115 -18 115 13 0 24 -8 27 -20z m206 -72 c3 -94 -2 -114 -27 -105 -13 5 -16 23 -16 95 0 91 4 105 27 100 10 -2 14 -27 16 -90z m177 78 c0 -11 -14 -16 -47 -18 l-48 -3 -5 -80 c-4 -62 -8 -80 -20 -80 -12 0 -16 19 -18 98 l-3 97 71 0 c54 0 70 -3 70 -14z m60 -6 c8 -14 21 -20 45 -20 24 0 37 6 45 20 11 21 40 28 40 9 0 -14 -46 -143 -60 -170 -6 -10 -17 -19 -25 -19 -18 0 -27 18 -65 119 -28 77 -28 81 -10 81 11 0 24 -9 30 -20z m312 8 c23 -19 28 -43 14 -70 -9 -17 -10 -31 -4 -43 26 -45 -29 -81 -113 -73 l-34 3 -3 98 -3 97 64 0 c36 0 70 -5 79 -12z m198 -3 c0 -11 -12 -15 -50 -15 l-49 0 -3 -82 c-2 -66 -6 -83 -18 -83 -12 0 -16 19 -18 98 l-3 97 71 0 c56 0 70 -3 70 -15z m175 0 c0 -5 -24 -11 -52 -13 -51 -3 -53 -4 -53 -32 0 -27 2 -29 48 -32 59 -4 58 -22 -3 -26 -37 -3 -45 -7 -45 -23 0 -16 7 -19 51 -19 43 0 50 -3 47 -17 -3 -15 -16 -19 -71 -21 l-67 -3 0 101 0 101 73 -3 c39 -2 72 -7 72 -13z m-1335 -325 c0 -18 -7 -20 -55 -20 -54 0 -55 0 -55 -30 0 -29 1 -30 50 -30 38 0 50 -4 50 -15 0 -11 -12 -15 -50 -15 -47 0 -50 -2 -50 -25 0 -24 3 -25 55 -25 42 0 55 -3 55 -15 0 -12 -15 -15 -75 -15 l-75 0 0 98 c0 54 3 102 7 105 3 4 37 7 75 7 61 0 68 -2 68 -20z m207 8 c5 -7 18 -35 27 -63 10 -27 24 -64 32 -82 19 -43 18 -55 -7 -51 -15 2 -26 19 -42 67 -12 35 -26 64 -32 65 -5 0 -19 -28 -31 -64 -16 -51 -26 -66 -42 -68 -23 -3 -30 16 -13 34 5 5 19 41 31 79 25 76 36 95 55 95 7 0 17 -6 22 -12z m321 -10 c3 -15 -5 -18 -52 -18 -56 0 -56 0 -56 -30 0 -29 1 -30 50 -30 38 0 50 -4 50 -15 0 -11 -12 -15 -50 -15 -47 0 -50 -2 -50 -25 0 -24 3 -25 55 -25 42 0 55 -3 55 -15 0 -12 -15 -15 -75 -15 l-75 0 0 98 c0 54 3 102 7 106 4 4 37 6 72 4 53 -2 66 -6 69 -20z m162 -50 l0 -72 48 70 c67 97 76 93 80 -33 3 -98 2 -103 -18 -103 -18 0 -20 6 -20 66 l0 66 -42 -64 c-24 -34 -51 -64 -60 -66 -16 -3 -18 7 -18 102 0 88 3 106 15 106 12 0 15 -15 15 -72z m322 -15 c3 -88 3 -88 31 -91 15 -2 27 -9 27 -18 0 -11 -17 -14 -75 -14 -60 0 -75 3 -75 15 0 10 10 15 30 15 l30 0 0 90 c0 72 3 90 15 90 11 0 15 -19 17 -87z m287 63 c44 -47 17 -95 -61 -111 -28 -5 -37 -28 -18 -40 17 -10 70 5 70 21 0 8 7 14 15 14 20 0 19 -29 -2 -52 -20 -23 -85 -24 -107 -2 -32 32 -10 94 34 94 10 0 22 5 25 10 4 6 11 8 16 5 5 -4 12 1 16 10 15 41 -57 47 -85 8 -16 -22 -23 -25 -33 -16 -10 10 -10 17 0 36 26 48 95 61 130 23z m-134 -327 c82 -30 172 -121 206 -204 20 -53 23 -76 23 -195 0 -173 -18 -225 -108 -316 -85 -85 -146 -108 -286 -108 -135 0 -201 24 -275 98 -67 67 -103 144 -117 251 -39 307 135 516 417 501 49 -3 104 -14 140 -27z m-1195 -253 l5 -259 140 228 c77 125 149 242 160 261 l20 34 83 0 82 0 0 -410 0 -410 -75 0 -75 0 -2 268 -3 267 -40 -63 c-22 -34 -96 -155 -165 -267 l-124 -205 -83 0 -83 0 0 410 0 411 78 -3 77 -3 5 -259z"/>
 <path d="M833 1824 c-9 -4 -9 -13 0 -37 l11 -32 12 30 c16 40 9 52 -23 39z"/>
 <path d="M1166 1822 c-7 -12 4 -52 14 -52 12 0 23 38 15 50 -7 12 -22 13 -29 2z"/>
 <path d="M1607 1823 c-8 -14 13 -57 22 -47 17 17 17 48 -1 52 -9 2 -18 -1 -21 -5z"/>
 <path d="M1790 1845 c0 -19 5 -25 23 -26 35 -2 51 2 59 14 11 19 -12 37 -48 37 -30 0 -34 -3 -34 -25z"/>
 <path d="M1790 1760 c0 -18 5 -21 38 -18 25 2 37 8 37 18 0 10 -12 16 -37 18 -33 3 -38 0 -38 -18z"/>
 <path d="M1832 1089 c-86 -43 -123 -124 -123 -267 1 -180 77 -272 223 -272 153 1 223 87 223 275 0 113 -13 160 -58 211 -65 75 -176 97 -265 53z"/>
 </g>

</svg>