<?xml version="1.0" encoding="UTF-8"?>
<svg xmlns="http://www.w3.org/2000/svg" xmlns:xlink="http://www.w3.org/1999/xlink" width="20pt" height="20pt" viewBox="0 0 20 20" version="1.1">
<g id="surface1">
<path style=" stroke:none;fill-rule:nonzero;fill:rgb(92.54902%,94.117647%,94.509804%);fill-opacity:1;" d="M 0.332031 1.5 L 18.667969 1.5 L 18.667969 15.5 L 0.332031 15.5 Z M 0.332031 1.5 "/>
<path style=" stroke:none;fill-rule:nonzero;fill:rgb(32.941176%,36.862745%,45.098039%);fill-opacity:1;" d="M 19 15.832031 L 0 15.832031 L 0 1.167969 L 19 1.167969 Z M 0.667969 15.167969 L 18.332031 15.167969 L 18.332031 1.832031 L 0.667969 1.832031 Z M 0.667969 15.167969 "/>
<path style=" stroke:none;fill-rule:nonzero;fill:rgb(32.941176%,36.862745%,45.098039%);fill-opacity:1;" d="M 1.667969 2.832031 L 17.332031 2.832031 L 17.332031 14.167969 L 1.667969 14.167969 Z M 1.667969 2.832031 "/>
<path style=" stroke:none;fill-rule:nonzero;fill:rgb(92.54902%,94.117647%,94.509804%);fill-opacity:1;" d="M 17.667969 14.5 L 1.332031 14.5 L 1.332031 2.5 L 17.667969 2.5 Z M 2 13.832031 L 17 13.832031 L 17 3.167969 L 2 3.167969 Z M 2 13.832031 "/>
<path style=" stroke:none;fill-rule:nonzero;fill:rgb(95.294118%,83.529412%,35.294118%);fill-opacity:1;" d="M 6.523438 5.691406 C 6.523438 6.53125 5.839844 7.210938 5 7.210938 C 4.160156 7.210938 3.476562 6.53125 3.476562 5.691406 C 3.476562 4.847656 4.160156 4.167969 5 4.167969 C 5.839844 4.167969 6.523438 4.847656 6.523438 5.691406 Z M 6.523438 5.691406 "/>
<path style=" stroke:none;fill-rule:nonzero;fill:rgb(6.666667%,62.745098%,52.156863%);fill-opacity:1;" d="M 17 10.871094 L 16.667969 10.5 L 12.667969 6.832031 L 9.167969 10.667969 L 12.332031 13.832031 L 17 13.832031 Z M 17 10.871094 "/>
<path style=" stroke:none;fill-rule:nonzero;fill:rgb(14.901961%,72.54902%,60%);fill-opacity:1;" d="M 2 13.832031 L 12.332031 13.832031 L 7.339844 8.839844 L 2 13.5 Z M 2 13.832031 "/>
<path style=" stroke:none;fill-rule:nonzero;fill:rgb(92.941176%,44.313725%,38.039216%);fill-opacity:1;" d="M 20 14.832031 C 20 17.042969 18.210938 18.832031 16 18.832031 C 13.789062 18.832031 12 17.042969 12 14.832031 C 12 12.625 13.789062 10.832031 16 10.832031 C 18.210938 10.832031 20 12.625 20 14.832031 Z M 20 14.832031 "/>
<path style=" stroke:none;fill-rule:nonzero;fill:rgb(100%,100%,100%);fill-opacity:1;" d="M 16.472656 14.832031 L 17.648438 13.65625 C 17.78125 13.523438 17.78125 13.3125 17.648438 13.183594 C 17.519531 13.054688 17.308594 13.054688 17.179688 13.183594 L 16 14.363281 L 14.820312 13.183594 C 14.691406 13.054688 14.480469 13.054688 14.351562 13.183594 C 14.21875 13.3125 14.21875 13.523438 14.351562 13.65625 L 15.527344 14.832031 L 14.351562 16.011719 C 14.21875 16.140625 14.21875 16.351562 14.351562 16.484375 C 14.414062 16.546875 14.5 16.582031 14.585938 16.582031 C 14.671875 16.582031 14.757812 16.546875 14.820312 16.484375 L 16 15.304688 L 17.179688 16.484375 C 17.242188 16.546875 17.328125 16.582031 17.414062 16.582031 C 17.5 16.582031 17.585938 16.546875 17.648438 16.484375 C 17.78125 16.351562 17.78125 16.140625 17.648438 16.011719 Z M 16.472656 14.832031 "/>
</g>
</svg>
