<?xml version="1.0" encoding="UTF-8"?>
<svg xmlns="http://www.w3.org/2000/svg" xmlns:xlink="http://www.w3.org/1999/xlink" width="16pt" height="16pt" viewBox="0 0 16 16" version="1.1">
<defs>
<linearGradient id="linear0" gradientUnits="userSpaceOnUse" x1="0" y1="-21110" x2="512" y2="-21110" gradientTransform="matrix(0.03125,0,0,-0.03125,0,-651.6875)">
<stop offset="0" style="stop-color:rgb(0%,95.294118%,55.294118%);stop-opacity:1;"/>
<stop offset="1" style="stop-color:rgb(0%,61.960784%,100%);stop-opacity:1;"/>
</linearGradient>
</defs>
<g id="surface1">
<path style=" stroke:none;fill-rule:nonzero;fill:url(#linear0);" d="M 16 8 C 16 12.417969 12.417969 16 8 16 C 3.582031 16 0 12.417969 0 8 C 0 3.582031 3.582031 0 8 0 C 12.417969 0 16 3.582031 16 8 Z M 16 8 "/>
<path style=" stroke:none;fill-rule:nonzero;fill:rgb(100%,100%,100%);fill-opacity:1;" d="M 11.035156 5.359375 C 11.035156 3.6875 9.675781 2.328125 8.003906 2.328125 C 6.335938 2.328125 4.976562 3.6875 4.976562 5.359375 C 4.976562 6.347656 5.453125 7.226562 6.1875 7.78125 C 4.21875 8.519531 2.816406 10.417969 2.816406 12.640625 L 3.753906 12.640625 C 3.753906 10.296875 5.660156 8.386719 8.003906 8.386719 C 9.675781 8.386719 11.035156 7.027344 11.035156 5.359375 Z M 8.003906 7.449219 C 6.851562 7.449219 5.914062 6.511719 5.914062 5.359375 C 5.914062 4.203125 6.851562 3.265625 8.003906 3.265625 C 9.160156 3.265625 10.097656 4.203125 10.097656 5.359375 C 10.097656 6.511719 9.160156 7.449219 8.003906 7.449219 Z M 8.003906 7.449219 "/>
<path style=" stroke:none;fill-rule:nonzero;fill:rgb(100%,100%,100%);fill-opacity:1;" d="M 13.214844 10.089844 L 11.535156 10.089844 L 11.535156 8.410156 L 10.597656 8.410156 L 10.597656 10.089844 L 8.917969 10.089844 L 8.917969 11.027344 L 10.597656 11.027344 L 10.597656 12.710938 L 11.535156 12.710938 L 11.535156 11.027344 L 13.214844 11.027344 Z M 13.214844 10.089844 "/>
</g>
</svg>
