<?xml version="1.0" encoding="UTF-8"?>
<svg xmlns="http://www.w3.org/2000/svg" xmlns:xlink="http://www.w3.org/1999/xlink" width="16pt" height="16pt" viewBox="0 0 16 16" version="1.1">
<g id="surface1">
<path style=" stroke:none;fill-rule:nonzero;fill:rgb(23.921569%,70.196078%,61.960784%);fill-opacity:1;" d="M 16 8 C 16 12.417969 12.417969 16 8 16 C 3.582031 16 0 12.417969 0 8 C 0 3.582031 3.582031 0 8 0 C 12.417969 0 16 3.582031 16 8 Z M 16 8 "/>
<path style=" stroke:none;fill-rule:nonzero;fill:rgb(21.568627%,63.137255%,55.686275%);fill-opacity:1;" d="M 14.699219 3.636719 L 7.625 10.960938 L 7.636719 11.75 L 7.960938 11.75 L 15.625 5.574219 C 15.398438 4.886719 15.085938 4.226562 14.699219 3.636719 Z M 14.699219 3.636719 "/>
<path style=" stroke:none;fill-rule:nonzero;fill:rgb(94.901961%,94.509804%,93.72549%);fill-opacity:1;" d="M 15.851562 3.289062 L 14.4375 1.886719 C 14.25 1.699219 13.9375 1.699219 13.738281 1.886719 L 7.699219 8.125 L 5.085938 5.550781 C 4.898438 5.363281 4.585938 5.363281 4.386719 5.550781 L 3.136719 6.789062 C 2.949219 6.976562 2.949219 7.289062 3.136719 7.476562 L 7.3125 11.613281 C 7.425781 11.726562 7.574219 11.761719 7.726562 11.75 C 7.875 11.761719 8.023438 11.726562 8.136719 11.613281 L 15.851562 3.988281 C 16.039062 3.789062 16.039062 3.476562 15.851562 3.289062 Z M 15.851562 3.289062 "/>
<path style=" stroke:none;fill-rule:nonzero;fill:rgb(90.196078%,89.803922%,89.019608%);fill-opacity:1;" d="M 8.136719 11.613281 L 15.851562 3.988281 C 16.039062 3.800781 16.039062 3.488281 15.851562 3.300781 L 15.625 3.085938 L 7.710938 10.863281 L 3.335938 6.601562 L 3.148438 6.789062 C 2.960938 6.976562 2.960938 7.289062 3.148438 7.476562 L 7.324219 11.613281 C 7.4375 11.726562 7.585938 11.761719 7.738281 11.75 C 7.875 11.761719 8.023438 11.726562 8.136719 11.613281 Z M 8.136719 11.613281 "/>
</g>
</svg>
