<!DOCTYPE svg PUBLIC "-//W3C//DTD SVG 20010904//EN" "http://www.w3.org/TR/2001/REC-SVG-20010904/DTD/svg10.dtd">
<svg version="1.0" xmlns="http://www.w3.org/2000/svg" width="130px" height="130px" viewBox="0 0 1300 1300" preserveAspectRatio="xMidYMid meet">
<g id="layer101" fill="#333333" stroke="none">
 <path d="M20 1292 c0 -14 166 -173 173 -165 4 4 -30 44 -75 90 -78 78 -98 94 -98 75z"/>
 <path d="M70 1293 c0 -16 140 -149 148 -141 5 5 -21 38 -63 78 -68 66 -85 79 -85 63z"/>
 <path d="M120 1292 c0 -4 27 -34 60 -67 l60 -59 -42 -43 -42 -43 -73 72 c-40 39 -76 69 -80 65 -4 -4 26 -41 67 -82 87 -88 86 -101 -1 -18 -32 31 -62 53 -66 49 -9 -9 108 -127 119 -120 15 10 8 -3 -9 -17 -10 -7 -15 -10 -12 -6 9 10 -89 102 -98 93 -4 -3 17 -31 46 -60 29 -30 49 -56 43 -60 -5 -3 -26 13 -46 36 -20 22 -40 38 -43 34 -4 -4 12 -25 34 -49 39 -40 41 -43 28 -67 -8 -14 -14 -19 -15 -11 0 8 -3 11 -7 8 -3 -4 -15 0 -25 10 -10 9 -18 11 -18 6 0 -6 7 -16 15 -23 8 -7 15 -20 15 -29 0 -14 2 -14 10 -1 14 22 12 7 -5 -31 -8 -21 -14 -27 -15 -16 0 10 -5 15 -10 12 -6 -3 -10 -18 -10 -33 0 -22 2 -24 11 -12 9 12 9 11 3 -5 -12 -28 -14 -384 -2 -391 5 -3 6 6 3 23 -5 24 -4 25 4 6 11 -24 3 -66 -10 -57 -5 3 -9 1 -9 -4 0 -14 56 -63 64 -55 4 4 4 -1 0 -11 -5 -13 -4 -17 3 -13 7 4 21 -9 34 -30 13 -21 50 -67 83 -103 51 -55 53 -58 12 -20 -27 25 -61 63 -77 84 -16 21 -29 35 -29 30 0 -4 -20 12 -45 36 -25 24 -45 40 -45 34 0 -12 342 -354 355 -354 5 0 -10 20 -34 44 -26 27 -39 46 -32 50 11 7 15 0 12 -18 -1 -5 5 -6 14 -2 11 4 14 2 9 -6 -5 -8 -1 -9 12 -4 10 4 15 4 11 0 -8 -8 41 -64 56 -64 5 0 4 6 -2 14 -9 10 -9 16 -1 21 6 4 14 4 17 1 4 -3 0 -6 -8 -6 -8 0 -2 -6 12 -14 20 -10 71 -13 205 -12 99 1 188 5 199 10 16 6 17 6 5 -3 -12 -10 -9 -11 15 -9 19 2 30 9 30 18 1 19 42 16 65 -5 24 -22 36 -18 16 4 -26 29 -2 34 24 6 13 -14 28 -25 33 -25 6 0 0 11 -13 25 -44 47 -30 59 15 15 25 -24 47 -41 50 -38 3 3 -12 23 -34 43 -22 21 -38 43 -34 48 3 5 29 -15 59 -44 29 -29 56 -50 59 -47 9 9 -82 108 -91 100 -5 -4 -2 1 5 11 14 17 27 24 17 9 -7 -11 111 -128 120 -119 4 4 -18 34 -49 66 -83 87 -70 88 18 1 41 -41 78 -71 82 -67 4 4 -25 40 -65 80 l-72 72 42 43 43 42 62 -62 c34 -34 66 -59 69 -55 9 9 -113 137 -122 128 -4 -3 -4 0 1 7 5 10 21 0 61 -39 29 -29 57 -50 61 -46 4 4 -17 31 -45 60 -29 29 -52 57 -52 62 0 6 3 6 8 0 21 -27 83 -78 88 -72 9 9 -73 97 -82 89 -4 -4 -4 -1 0 6 10 16 10 16 51 -19 19 -17 35 -28 35 -24 0 13 -58 74 -65 67 -3 -3 -3 1 0 10 6 15 10 14 33 -7 35 -33 42 -22 9 13 l-27 28 20 49 c23 59 27 46 5 -16 -9 -23 -12 -40 -9 -36 4 4 13 2 21 -4 16 -14 17 3 1 19 -9 9 -10 15 -2 20 14 8 13 375 0 407 -6 15 -5 16 2 6 8 -11 10 -3 8 27 -2 40 -30 87 -46 77 -5 -3 -6 5 -3 17 3 14 1 18 -4 11 -5 -7 -19 5 -41 38 -18 27 -30 49 -27 49 2 0 16 -17 30 -37 14 -21 25 -33 25 -28 0 5 16 -6 35 -25 19 -19 35 -30 35 -24 0 13 -145 156 -151 149 -3 -2 -21 11 -39 30 -19 19 -30 35 -25 35 5 0 -24 34 -65 75 -41 41 -79 75 -84 75 -5 0 3 -14 19 -30 16 -17 30 -37 31 -46 1 -9 -1 -13 -4 -9 -4 4 -7 12 -7 18 0 7 -10 12 -22 11 -12 0 -20 3 -18 6 10 16 -38 44 -77 46 -30 2 -38 0 -27 -8 10 -7 9 -8 -6 -2 -28 11 -405 14 -405 3 0 -5 6 -9 13 -9 6 0 4 -5 -6 -11 -10 -6 -21 -8 -24 -5 -4 3 0 6 7 6 9 0 7 5 -6 15 -24 18 -38 19 -27 3 18 -30 9 -38 -16 -14 -37 36 -51 33 -17 -3 25 -26 26 -29 8 -24 -11 2 -30 16 -43 29 -36 38 -44 28 -10 -12 27 -31 33 -54 14 -54 -4 0 -4 3 -1 6 3 3 -14 24 -38 46 -58 54 -68 42 -14 -16 57 -62 42 -58 -26 6 -71 67 -84 54 -15 -16 39 -40 49 -56 39 -61 -7 -5 -10 -5 -7 -1 4 4 -21 34 -56 66 -60 58 -75 69 -75 52z m765 -12 c-3 -5 -1 -10 6 -10 7 0 10 -2 8 -5 -3 -2 -16 -1 -29 2 -22 6 -23 7 -4 14 26 10 26 10 19 -1z m-465 -201 c9 -5 2 -6 -18 -3 -32 6 -31 5 35 -59 37 -36 70 -64 72 -61 7 6 -32 73 -40 69 -3 -3 -14 4 -23 14 -10 11 -13 22 -8 25 11 7 58 -45 75 -82 8 -18 7 -26 -6 -37 -9 -9 -15 -13 -13 -10 2 3 -33 41 -79 85 -81 78 -82 78 -46 73 20 -3 43 -10 51 -14z m-126 1 c-12 -12 155 -182 169 -173 5 3 -28 43 -74 89 -46 46 -79 84 -73 84 6 0 45 -36 88 -79 l77 -80 -37 -48 c-20 -26 -39 -50 -41 -53 -9 -8 14 33 29 53 12 17 6 26 -71 102 -47 46 -89 81 -94 78 -5 -3 28 -43 74 -89 46 -46 81 -86 78 -89 -3 -3 -42 33 -87 78 -47 48 -85 80 -90 75 -5 -5 27 -44 75 -90 45 -45 83 -86 83 -92 0 -6 -40 29 -88 77 -48 48 -92 84 -98 80 -5 -4 11 14 36 40 24 26 46 47 49 47 3 0 0 -5 -5 -10z m796 -77 c0 -8 -9 0 -50 45 l-45 47 48 -45 c26 -24 47 -45 47 -47z m-55 -73 c82 -82 147 -152 144 -154 -3 -3 -74 64 -159 149 -84 85 -149 155 -144 155 5 0 76 -67 159 -150z m5 95 c29 -30 57 -52 61 -49 4 2 13 -4 19 -15 23 -45 -11 -26 -80 44 -41 41 -70 75 -64 75 5 0 34 -25 64 -55z m-182 40 c-2 -3 71 -80 164 -172 92 -92 168 -172 168 -178 0 -5 -78 68 -173 163 -95 95 -176 169 -180 165 -4 -4 74 -89 175 -190 100 -100 180 -185 177 -187 -3 -3 -87 77 -187 177 -100 101 -186 181 -190 178 -4 -3 4 6 17 22 14 15 27 27 29 27 3 0 3 -2 0 -5z m195 -104 c59 -59 107 -104 107 -99 0 5 -7 23 -16 40 -9 16 -11 27 -5 24 12 -8 54 -117 47 -123 -3 -3 -8 6 -12 21 -3 14 -9 24 -13 21 -4 -2 -59 48 -122 111 -62 62 -109 114 -103 114 5 0 58 -49 117 -109z m137 -346 c0 -5 -88 78 -195 186 -108 107 -198 193 -202 190 -3 -3 -3 0 2 8 5 9 61 -40 201 -180 107 -107 194 -198 194 -204z m-884 284 c88 -87 92 -93 81 -118 -26 -63 -30 -62 -132 40 -52 52 -95 94 -95 93 0 -1 -3 -10 -7 -20 -4 -10 -2 -15 4 -11 5 3 49 -34 97 -82 87 -87 87 -88 77 -122 l-11 -34 6 38 c3 22 1 37 -4 33 -4 -3 -48 35 -96 83 -83 83 -87 90 -76 112 18 34 50 79 57 79 3 0 48 -41 99 -91z m493 55 c4 3 96 -84 204 -193 186 -186 197 -195 198 -167 1 23 3 26 6 9 6 -32 -23 -139 -57 -209 -16 -34 -56 -88 -87 -121 -32 -33 -57 -57 -55 -54 1 2 -16 24 -40 48 -23 23 -39 45 -36 48 3 3 23 -14 46 -39 25 -27 44 -40 50 -34 6 6 -10 27 -42 58 -45 43 -52 46 -64 32 -7 -10 -10 -11 -6 -3 4 8 13 32 21 55 11 34 13 36 9 9 -5 -28 1 -38 47 -82 69 -66 83 -53 16 15 -29 29 -50 56 -47 59 2 3 28 -19 56 -49 29 -30 55 -50 58 -44 4 5 -23 40 -60 77 -36 36 -66 72 -66 78 0 7 32 -21 70 -62 l70 -74 17 25 c16 25 16 26 -67 109 -46 47 -82 87 -79 90 3 3 42 -33 87 -79 45 -46 85 -79 88 -74 3 5 -35 51 -85 102 -85 87 -100 106 -85 106 14 0 174 -165 174 -179 0 -14 1 -14 10 -1 11 17 14 47 3 36 -9 -9 -163 145 -163 164 0 13 -1 13 -10 0 -5 -8 -10 -10 -10 -4 0 31 22 16 107 -68 51 -51 93 -88 93 -83 0 6 -38 48 -85 95 -47 47 -85 91 -85 98 0 7 -5 10 -10 7 -10 -6 -35 44 -26 53 3 2 8 -7 12 -22 3 -14 9 -24 14 -21 4 2 48 -38 98 -89 51 -51 92 -89 92 -83 0 13 -212 232 -222 229 -3 -1 -12 6 -20 15 -11 14 -11 16 1 9 9 -6 12 -5 9 5 -3 8 -10 13 -15 12 -6 -1 -16 10 -22 25 -8 16 45 -30 124 -108 75 -74 141 -144 145 -155 8 -18 9 -18 9 4 1 19 -36 62 -151 177 -83 84 -155 151 -160 148 -4 -3 -5 3 -1 13 3 10 2 15 -2 10 -12 -10 -95 73 -94 93 1 11 2 11 6 -3 2 -9 8 -15 12 -13z m480 -94 c0 -8 -6 0 -14 19 -8 18 -15 36 -15 40 1 13 29 -45 29 -59z m-969 -179 c0 -9 -40 25 -90 75 -50 50 -90 86 -90 80 0 -6 38 -49 85 -96 47 -47 85 -91 85 -98 0 -7 5 -10 10 -7 6 3 10 4 10 1 0 -2 3 -13 7 -23 3 -10 -39 27 -95 81 -56 55 -102 107 -102 115 0 14 -1 14 -10 1 -13 -20 -12 -10 1 29 l11 32 89 -88 c49 -48 89 -94 89 -102z m30 -131 c0 -8 -49 35 -110 95 -60 60 -110 116 -110 125 0 8 50 -35 110 -95 61 -60 110 -116 110 -125z m-239 158 c-4 -35 -6 -38 -9 -15 -3 26 3 57 10 57 2 0 1 -19 -1 -42z m1106 -15 c-3 -10 -5 -2 -5 17 0 19 2 27 5 18 2 -10 2 -26 0 -35z m-862 -185 c3 3 5 -3 5 -14 0 -13 -37 19 -120 101 -66 66 -120 124 -120 130 0 5 52 -42 115 -106 63 -64 117 -113 120 -111z m-1 -51 c2 2 10 -23 18 -56 8 -33 11 -58 6 -55 -4 3 -11 22 -14 43 -5 32 -25 57 -125 157 -65 65 -119 123 -119 129 0 5 52 -42 115 -106 63 -64 117 -114 119 -112z m-4 -62 c0 -5 -52 42 -115 105 -63 63 -115 119 -115 125 0 5 52 -42 115 -105 63 -63 115 -119 115 -125z m50 -87 c0 3 13 -7 30 -23 16 -15 26 -33 23 -38 -4 -7 1 -8 13 -3 10 4 15 4 11 0 -4 -5 21 -36 55 -71 34 -35 58 -63 53 -63 -13 0 -465 452 -465 465 0 5 63 -54 140 -131 77 -78 140 -139 140 -136z m-33 225 c-3 -10 -5 -2 -5 17 0 19 2 27 5 18 2 -10 2 -26 0 -35z m-238 -19 c4 3 97 -85 207 -195 109 -109 194 -199 189 -200 -6 0 -1 -5 10 -10 11 -5 13 -8 5 -6 -8 1 -104 92 -212 203 -109 110 -198 193 -199 185 0 -12 -3 -11 -9 4 -5 11 -8 29 -8 40 1 17 1 16 5 -3 2 -12 8 -20 12 -18z m981 -168 c0 -6 -29 19 -65 54 -36 35 -65 69 -65 74 0 6 29 -19 65 -54 36 -35 65 -69 65 -74z m-650 -203 c0 -1 -5 -5 -12 -9 -6 -4 -9 -3 -7 2 2 5 -62 74 -143 154 -82 80 -148 143 -148 140 0 -9 -20 24 -20 34 0 5 74 -64 165 -154 91 -90 165 -165 165 -167z m-401 245 c6 -18 7 -28 2 -23 -10 12 -25 55 -18 55 3 0 10 -15 16 -32z m137 -41 c3 -9 9 -15 13 -13 10 7 134 -119 137 -139 2 -13 -1 -14 -11 -5 -8 7 -13 17 -12 22 1 6 -4 13 -12 16 -9 3 -11 0 -6 -9 4 -8 -13 6 -39 31 -46 44 -57 58 -35 44 7 -4 10 -1 7 7 -3 8 -10 13 -16 12 -11 -3 -41 34 -61 77 l-12 25 20 -25 c11 -14 23 -33 27 -43z m721 -43 c-3 -3 10 -20 29 -36 49 -43 58 -63 36 -79 -15 -12 -16 -12 -5 2 10 13 5 22 -30 57 -53 52 -72 43 -20 -10 20 -21 34 -40 31 -43 -3 -3 -21 12 -41 34 -19 22 -39 36 -44 33 -4 -4 3 5 16 21 14 15 27 27 29 27 3 0 3 -3 -1 -6z m-92 -74 c-3 -5 0 -10 8 -10 7 0 26 -13 42 -30 16 -16 25 -30 20 -30 -4 0 -6 -2 -3 -5 3 -3 12 -3 21 0 12 5 7 14 -21 40 -20 18 -34 37 -29 41 8 8 53 -30 68 -58 7 -13 4 -20 -12 -29 -19 -10 -27 -6 -65 32 -37 36 -48 59 -28 59 3 0 2 -4 -1 -10z m14 -54 c37 -37 40 -44 25 -50 -10 -4 -15 -4 -12 -1 4 4 -9 20 -28 37 -19 16 -32 34 -29 38 3 5 -1 11 -7 13 -7 3 -8 6 -3 6 6 1 30 -19 54 -43z m-271 27 c-13 -3 -6 -13 28 -45 24 -23 42 -43 39 -46 -8 -8 -95 80 -89 90 3 4 13 7 22 7 16 -1 16 -2 0 -6z m119 -10 c-20 -2 -52 -2 -70 0 -17 2 0 4 38 4 39 0 53 -2 32 -4z m122 -37 c24 -24 29 -36 20 -41 -8 -5 -10 -4 -5 3 4 7 1 12 -7 12 -7 0 -26 14 -42 30 -20 20 -24 30 -14 30 8 0 30 -15 48 -34z m-149 -11 c19 -19 29 -35 24 -35 -6 0 -25 16 -44 35 -19 19 -29 35 -24 35 6 0 25 -16 44 -35z m50 0 c19 -19 29 -35 24 -35 -6 0 -25 16 -44 35 -19 19 -29 35 -24 35 6 0 25 -16 44 -35z m55 5 c20 -21 24 -30 14 -30 -9 0 -28 14 -44 30 -20 21 -24 30 -14 30 9 0 28 -13 44 -30z m-10 -50 c-3 -5 -21 -9 -38 -9 l-32 2 35 7 c19 4 36 8 38 9 2 0 0 -3 -3 -9z"/>
 <path d="M187 957 c-16 -24 -15 -25 79 -119 l95 -95 13 31 c7 17 13 31 12 31 -1 0 -42 40 -92 88 l-91 88 -16 -24z m103 -92 c47 -47 80 -85 75 -85 -6 0 -48 38 -95 85 -47 47 -80 85 -75 85 6 0 48 -38 95 -85z"/>
 <path d="M830 915 c19 -19 36 -35 39 -35 3 0 -10 16 -29 35 -19 19 -36 35 -39 35 -3 0 10 -16 29 -35z"/>
 <path d="M230 287 c0 -2 15 -16 33 -33 l32 -29 -29 33 c-28 30 -36 37 -36 29z"/>
 <path d="M1135 1140 c87 -87 161 -157 164 -154 7 6 -301 314 -314 314 -5 0 62 -72 150 -160z"/>
 <path d="M1160 1165 c74 -74 136 -132 139 -129 7 6 -251 264 -264 264 -5 0 51 -61 125 -135z"/>
 <path d="M1185 1190 c106 -106 138 -131 97 -73 -32 44 -178 183 -193 183 -8 0 36 -49 96 -110z"/>
 <path d="M1210 1215 c47 -47 86 -85 87 -85 2 0 3 5 3 11 0 17 -142 159 -159 159 -9 0 22 -38 69 -85z"/>
 <path d="M1235 1240 c64 -64 65 -65 65 -50 0 18 -92 110 -109 110 -9 0 8 -24 44 -60z"/>
 <path d="M1260 1265 c19 -20 36 -31 38 -25 5 15 -38 60 -57 60 -10 0 -3 -12 19 -35z"/>
 <path d="M0 1263 c0 -16 160 -169 168 -161 5 5 -26 43 -73 88 -77 75 -95 89 -95 73z"/>
 <path d="M1090 1147 c0 -2 15 -16 33 -33 l32 -29 -29 33 c-28 30 -36 37 -36 29z"/>
 <path d="M0 1014 c0 -6 13 -23 29 -38 26 -25 29 -25 35 -9 4 9 4 14 0 10 -4 -4 -20 5 -36 20 -15 15 -28 22 -28 17z"/>
 <path d="M0 912 c0 -5 7 -15 15 -22 8 -7 15 -8 15 -2 0 5 -7 15 -15 22 -8 7 -15 8 -15 2z"/>
 <path d="M0 305 c0 -13 298 -311 304 -304 3 3 -64 74 -149 159 -85 85 -155 150 -155 145z"/>
 <path d="M0 255 c0 -13 248 -261 254 -254 3 3 -53 63 -124 134 -72 71 -130 125 -130 120z"/>
 <path d="M1127 193 l-33 -34 83 -81 c45 -45 86 -78 90 -74 4 3 -28 41 -70 84 -42 43 -77 82 -77 87 0 5 38 -28 85 -75 46 -46 88 -81 92 -77 4 4 -31 46 -77 92 -47 47 -80 85 -75 85 5 0 40 -30 77 -67 37 -37 71 -64 74 -60 4 4 -25 40 -64 80 l-71 74 -34 -34z"/>
 <path d="M0 202 c0 -14 155 -179 183 -194 40 -21 22 2 -78 102 -58 58 -105 99 -105 92z"/>
 <path d="M9 132 c14 -27 131 -135 138 -128 4 4 -24 38 -62 76 -68 69 -95 87 -76 52z"/>
 <path d="M9 83 c15 -29 80 -87 88 -80 4 4 -13 28 -37 52 -45 46 -68 58 -51 28z"/>
 <path d="M0 42 c0 -14 39 -46 47 -39 3 4 -2 16 -12 27 -19 21 -35 26 -35 12z"/>
 <path d="M890 15 c7 -8 17 -15 22 -15 6 0 5 7 -2 15 -7 8 -17 15 -22 15 -6 0 -5 -7 2 -15z"/>
 </g>

</svg>