<?xml version="1.0" encoding="UTF-8"?>
<svg xmlns="http://www.w3.org/2000/svg" xmlns:xlink="http://www.w3.org/1999/xlink" width="130pt" height="130pt" viewBox="0 0 130 130" version="1.1">
<g id="surface1">
<path style=" stroke:none;fill-rule:nonzero;fill:rgb(99.215686%,51.764706%,41.176471%);fill-opacity:1;" d="M 129.601562 64.800781 C 129.601562 100.589844 100.589844 129.601562 64.800781 129.601562 C 29.011719 129.601562 0 100.589844 0 64.800781 C 0 29.011719 29.011719 0 64.800781 0 C 100.589844 0 129.601562 29.011719 129.601562 64.800781 Z M 129.601562 64.800781 "/>
<path style=" stroke:none;fill-rule:nonzero;fill:rgb(51.764706%,85.882353%,100%);fill-opacity:1;" d="M 65.109375 92.558594 C 65.003906 92.558594 64.902344 92.660156 64.800781 92.660156 C 64.699219 92.660156 64.597656 92.558594 64.492188 92.558594 Z M 65.109375 92.558594 "/>
<path style=" stroke:none;fill-rule:nonzero;fill:rgb(51.764706%,85.882353%,100%);fill-opacity:1;" d="M 115.109375 105.621094 C 103.273438 120.210938 85.109375 129.601562 64.800781 129.601562 C 44.492188 129.601562 26.328125 120.210938 14.492188 105.621094 C 22.960938 94.292969 35.921875 88.679688 46.53125 85.921875 C 45.71875 92.660156 49.1875 101.640625 49.289062 101.433594 C 52.859375 93.273438 64.800781 92.558594 64.800781 92.558594 C 64.800781 92.558594 76.742188 93.273438 80.210938 101.433594 C 80.3125 101.640625 83.882812 92.660156 82.964844 85.921875 C 93.679688 88.679688 106.742188 94.292969 115.109375 105.621094 Z M 115.109375 105.621094 "/>
<path style=" stroke:none;fill-rule:nonzero;fill:rgb(100%,100%,100%);fill-opacity:1;" d="M 79.390625 79.597656 C 79.390625 79.597656 79.390625 79.597656 79.390625 79.699219 C 79.390625 80.71875 78.882812 87.25 65.109375 92.453125 L 64.492188 92.453125 C 50.71875 87.25 50.207031 80.71875 50.207031 79.699219 C 50.207031 79.597656 50.207031 79.597656 50.207031 79.597656 C 50.207031 78.269531 50.511719 76.941406 50.820312 75.617188 C 54.800781 80.617188 59.597656 83.984375 64.800781 83.984375 C 70.003906 83.984375 74.800781 80.617188 78.78125 75.617188 C 79.089844 76.941406 79.390625 78.269531 79.390625 79.597656 Z M 79.390625 79.597656 "/>
<path style=" stroke:none;fill-rule:nonzero;fill:rgb(32.941176%,75.294118%,92.156863%);fill-opacity:1;" d="M 79.390625 79.597656 C 79.390625 79.597656 80.109375 86.945312 64.800781 92.660156 C 64.800781 92.660156 76.742188 93.371094 80.210938 101.539062 C 80.414062 101.742188 87.25 83.984375 79.390625 79.597656 Z M 79.390625 79.597656 "/>
<path style=" stroke:none;fill-rule:nonzero;fill:rgb(32.941176%,75.294118%,92.156863%);fill-opacity:1;" d="M 50.207031 79.597656 C 42.351562 83.984375 49.1875 101.742188 49.390625 101.433594 C 52.960938 93.273438 64.800781 92.558594 64.800781 92.558594 C 49.492188 86.945312 50.207031 79.597656 50.207031 79.597656 Z M 50.207031 79.597656 "/>
<path style=" stroke:none;fill-rule:nonzero;fill:rgb(100%,100%,100%);fill-opacity:1;" d="M 86.230469 53.78125 C 85.3125 60.109375 82.558594 66.023438 77.964844 70.511719 C 77.046875 71.433594 76.230469 72.148438 75.210938 72.863281 L 73.578125 67.660156 L 56.023438 67.660156 L 54.390625 72.863281 C 51.128906 70.414062 44.289062 63.578125 44.1875 57.148438 C 41.328125 20.511719 69.390625 28.269531 69.390625 28.269531 C 88.269531 26.941406 87.660156 43.574219 86.230469 53.78125 Z M 86.230469 53.78125 "/>
<path style=" stroke:none;fill-rule:nonzero;fill:rgb(100%,100%,100%);fill-opacity:1;" d="M 90.007812 60.410156 C 88.578125 62.761719 86.640625 64.390625 84.800781 65.003906 C 85.519531 63.371094 86.128906 61.636719 86.640625 59.902344 C 86.640625 59.902344 86.640625 59.902344 86.640625 59.800781 C 87.046875 58.269531 87.453125 56.738281 87.863281 55.210938 L 87.761719 55.210938 C 88.171875 53.679688 88.578125 52.148438 88.882812 50.617188 C 89.292969 50.617188 89.699219 50.820312 90.109375 51.023438 C 92.351562 52.453125 92.25 56.636719 90.007812 60.410156 Z M 90.007812 60.410156 "/>
<path style=" stroke:none;fill-rule:nonzero;fill:rgb(100%,100%,100%);fill-opacity:1;" d="M 44.800781 65.003906 C 42.960938 64.390625 41.023438 62.761719 39.59375 60.410156 C 37.25 56.636719 37.25 52.453125 39.492188 51.128906 C 39.699219 51.023438 39.800781 50.921875 40 50.921875 C 41.230469 55.71875 42.65625 59.289062 42.960938 60.003906 C 43.472656 61.636719 44.082031 63.371094 44.800781 65.003906 Z M 44.800781 65.003906 "/>
<path style=" stroke:none;fill-rule:nonzero;fill:rgb(19.607843%,29.019608%,36.862745%);fill-opacity:1;" d="M 75.921875 18.0625 C 76.742188 8.671875 61.839844 9.289062 61.839844 9.289062 C 39.289062 12.550781 36.839844 33.574219 36.839844 33.574219 L 39.902344 29.898438 C 35.101562 40.410156 42.351562 58.472656 42.960938 59.902344 C 46.738281 72.453125 55.109375 83.984375 64.800781 83.984375 C 74.492188 83.984375 82.863281 72.453125 86.640625 59.902344 C 86.640625 59.902344 86.640625 59.902344 86.640625 59.800781 C 87.046875 58.269531 87.453125 56.738281 87.761719 55.210938 L 87.660156 55.210938 C 89.699219 47.042969 91.945312 38.777344 91.945312 38.777344 C 97.761719 9.492188 75.921875 18.0625 75.921875 18.0625 Z M 86.230469 53.78125 C 85.3125 60.109375 82.558594 66.023438 77.964844 70.511719 C 77.046875 71.433594 76.128906 72.148438 75.210938 72.863281 L 73.578125 67.761719 L 56.023438 67.761719 L 54.390625 72.964844 C 51.128906 70.511719 48.371094 67.148438 46.128906 63.269531 C 45.101562 61.230469 44.492188 59.085938 44.1875 57.25 C 41.328125 20.613281 69.390625 28.371094 69.390625 28.371094 C 88.269531 26.941406 87.660156 43.574219 86.230469 53.78125 Z M 86.230469 53.78125 "/>
<path style=" stroke:none;fill-rule:nonzero;fill:rgb(19.607843%,29.019608%,36.862745%);fill-opacity:1;" d="M 75.921875 18.0625 C 76.742188 8.671875 61.839844 9.289062 61.839844 9.289062 C 39.289062 12.550781 36.839844 33.574219 36.839844 33.574219 L 39.902344 29.898438 C 35.101562 40.410156 42.351562 58.472656 42.960938 59.902344 C 46.738281 72.453125 55.109375 83.984375 64.800781 83.984375 C 74.492188 83.984375 82.863281 72.453125 86.640625 59.902344 C 86.640625 59.902344 86.640625 59.902344 86.640625 59.800781 C 87.046875 58.269531 87.453125 56.738281 87.761719 55.210938 L 87.660156 55.210938 C 89.699219 47.042969 91.945312 38.777344 91.945312 38.777344 C 97.761719 9.492188 75.921875 18.0625 75.921875 18.0625 Z M 86.230469 53.78125 C 85.3125 60.109375 82.558594 66.023438 77.964844 70.511719 C 77.046875 71.433594 76.128906 72.148438 75.210938 72.863281 L 73.578125 67.761719 L 56.023438 67.761719 L 54.390625 72.964844 C 51.128906 70.511719 48.371094 67.148438 46.128906 63.269531 C 45.101562 61.230469 44.492188 59.085938 44.1875 57.25 C 41.328125 20.613281 69.390625 28.371094 69.390625 28.371094 C 88.269531 26.941406 87.660156 43.574219 86.230469 53.78125 Z M 86.230469 53.78125 "/>
<path style=" stroke:none;fill-rule:nonzero;fill:rgb(19.607843%,29.019608%,36.862745%);fill-opacity:1;" d="M 75.921875 18.0625 C 76.742188 8.671875 61.839844 9.289062 61.839844 9.289062 C 39.289062 12.550781 36.839844 33.574219 36.839844 33.574219 L 39.902344 29.898438 C 35.101562 40.410156 42.351562 58.472656 42.960938 59.902344 C 46.738281 72.453125 55.109375 83.984375 64.800781 83.984375 C 74.492188 83.984375 82.863281 72.453125 86.640625 59.902344 C 86.640625 59.902344 86.640625 59.902344 86.640625 59.800781 C 87.046875 58.269531 87.453125 56.738281 87.761719 55.210938 L 87.660156 55.210938 C 89.699219 47.042969 91.945312 38.777344 91.945312 38.777344 C 97.761719 9.492188 75.921875 18.0625 75.921875 18.0625 Z M 86.230469 53.78125 C 85.3125 60.109375 82.558594 66.023438 77.964844 70.511719 C 77.046875 71.433594 76.128906 72.148438 75.210938 72.863281 L 73.578125 67.761719 L 56.023438 67.761719 L 54.390625 72.964844 C 51.128906 70.511719 44.289062 63.679688 44.1875 57.25 C 41.328125 20.613281 69.390625 28.371094 69.390625 28.371094 C 88.269531 26.941406 87.660156 43.574219 86.230469 53.78125 Z M 86.230469 53.78125 "/>
<path style=" stroke:none;fill-rule:nonzero;fill:rgb(100%,100%,100%);fill-opacity:1;" d="M 57.660156 71.230469 C 59.390625 73.167969 61.941406 74.492188 64.800781 74.492188 C 67.660156 74.492188 70.210938 73.269531 71.941406 71.230469 Z M 57.660156 71.230469 "/>
</g>
</svg>
